<svg width="24" height="24" viewBox="0 0 24 24" fill="none" xmlns="http://www.w3.org/2000/svg">
<path fill-rule="evenodd" clip-rule="evenodd" d="M17.0912 6.90882C14.2794 4.09705 9.72065 4.09705 6.90887 6.90882C4.0971 9.7206 4.0971 14.2794 6.90887 17.0912C9.35278 19.5351 13.1191 19.8557 15.9084 18.049C16.4646 17.6886 17.2076 17.8475 17.5679 18.4037C17.9282 18.96 17.7694 19.703 17.2132 20.0633C13.4934 22.4728 8.47276 22.0492 5.21181 18.7882C1.46278 15.0392 1.46278 8.9608 5.21181 5.21177C8.96085 1.46274 15.0392 1.46274 18.7883 5.21177C20.6625 7.08603 21.6 9.54503 21.6 12C21.6 13.9882 19.9883 15.6 18 15.6C17.1896 15.6 16.4418 15.3322 15.8401 14.8803C14.9644 16.046 13.5703 16.8 12 16.8C9.34907 16.8 7.20004 14.651 7.20004 12C7.20004 9.34903 9.34907 7.19999 12 7.19999C14.651 7.19999 16.8 9.34903 16.8 12C16.8 12.6627 17.3373 13.2 18 13.2C18.6628 13.2 19.2 12.6627 19.2 12C19.2 10.1555 18.4973 8.31492 17.0912 6.90882ZM14.4 12C14.4 10.6745 13.3255 9.59999 12 9.59999C10.6746 9.59999 9.60004 10.6745 9.60004 12C9.60004 13.3255 10.6746 14.4 12 14.4C13.3255 14.4 14.4 13.3255 14.4 12Z" fill="currentColor"/>
</svg>
