<svg width="24" height="24" viewBox="0 0 24 24" fill="none" xmlns="http://www.w3.org/2000/svg">
<path fill-rule="evenodd" clip-rule="evenodd" d="M7.19999 2.39999C6.53725 2.39999 5.99999 2.93725 5.99999 3.59999V4.79999H4.79999C3.47451 4.79999 2.39999 5.87451 2.39999 7.19999V19.2C2.39999 20.5255 3.47451 21.6 4.79999 21.6H19.2C20.5255 21.6 21.6 20.5255 21.6 19.2V7.19999C21.6 5.87451 20.5255 4.79999 19.2 4.79999H18V3.59999C18 2.93725 17.4627 2.39999 16.8 2.39999C16.1373 2.39999 15.6 2.93725 15.6 3.59999V4.79999H8.39999V3.59999C8.39999 2.93725 7.86274 2.39999 7.19999 2.39999ZM7.19999 8.39999C6.53725 8.39999 5.99999 8.93725 5.99999 9.59999C5.99999 10.2627 6.53725 10.8 7.19999 10.8H16.8C17.4627 10.8 18 10.2627 18 9.59999C18 8.93725 17.4627 8.39999 16.8 8.39999H7.19999Z" fill="currentColor"/>
</svg>
