<svg width="24" height="24" viewBox="0 0 24 24" fill="none" xmlns="http://www.w3.org/2000/svg">
<path d="M6.60002 15.6C4.28043 15.6 2.40002 13.7196 2.40002 11.4C2.40002 9.22995 4.04578 7.44429 6.15724 7.22306C6.05466 6.83258 6.00002 6.42267 6.00002 6C6.00002 3.34903 8.14906 1.2 10.8 1.2C13.0546 1.2 14.9462 2.75445 15.4614 4.85009C15.7029 4.81706 15.9495 4.8 16.2 4.8C19.1824 4.8 21.6 7.21766 21.6 10.2C21.6 13.1823 19.1824 15.6 16.2 15.6H13.2V11.2971L14.7515 12.8485C15.2201 13.3172 15.9799 13.3172 16.4486 12.8485C16.9172 12.3799 16.9172 11.6201 16.4486 11.1515L12.8486 7.55147C12.3799 7.08284 11.6201 7.08284 11.1515 7.55147L7.5515 11.1515C7.08287 11.6201 7.08287 12.3799 7.5515 12.8485C8.02013 13.3172 8.77992 13.3172 9.24855 12.8485L10.8 11.2971L10.8 15.6H6.60002Z" fill="currentColor"/>
<path d="M10.8 15.6H13.2L13.2 21.6C13.2 22.2627 12.6628 22.8 12 22.8C11.3373 22.8 10.8 22.2627 10.8 21.6V15.6Z" fill="currentColor"/>
</svg>
