<svg width="24" height="24" viewBox="0 0 24 24" fill="none" xmlns="http://www.w3.org/2000/svg">
<path d="M3.59991 4.79991C3.59991 4.13717 4.13717 3.59991 4.79991 3.59991H19.1999C19.8627 3.59991 20.3999 4.13717 20.3999 4.79991V7.19991C20.3999 7.86266 19.8627 8.39991 19.1999 8.39991H4.79992C4.13717 8.39991 3.59991 7.86266 3.59991 7.19991V4.79991Z" fill="currentColor"/>
<path d="M3.59991 11.9999C3.59991 11.3372 4.13717 10.7999 4.79991 10.7999H11.9999C12.6627 10.7999 13.1999 11.3372 13.1999 11.9999V19.1999C13.1999 19.8627 12.6627 20.3999 11.9999 20.3999H4.79991C4.13717 20.3999 3.59991 19.8627 3.59991 19.1999V11.9999Z" fill="currentColor"/>
<path d="M16.7999 10.7999C16.1372 10.7999 15.5999 11.3372 15.5999 11.9999V19.1999C15.5999 19.8627 16.1372 20.3999 16.7999 20.3999H19.1999C19.8627 20.3999 20.3999 19.8627 20.3999 19.1999V11.9999C20.3999 11.3372 19.8627 10.7999 19.1999 10.7999H16.7999Z" fill="currentColor"/>
</svg>
