<svg width="24" height="24" viewBox="0 0 24 24" fill="none" xmlns="http://www.w3.org/2000/svg">
<path d="M10.3246 4.31733C10.751 2.56092 13.249 2.56092 13.6754 4.31733C13.9508 5.45195 15.2507 5.9904 16.2478 5.38287C17.7913 4.44241 19.5576 6.20872 18.6172 7.75221C18.0096 8.74928 18.5481 10.0492 19.6827 10.3246C21.4391 10.751 21.4391 13.249 19.6827 13.6754C18.5481 13.9508 18.0096 15.2508 18.6172 16.2478C19.5576 17.7913 17.7913 19.5576 16.2478 18.6172C15.2507 18.0096 13.9508 18.5481 13.6754 19.6827C13.249 21.4391 10.751 21.4391 10.3246 19.6827C10.0492 18.5481 8.74926 18.0096 7.75219 18.6172C6.2087 19.5576 4.44239 17.7913 5.38285 16.2478C5.99038 15.2508 5.45193 13.9508 4.31731 13.6754C2.5609 13.249 2.5609 10.751 4.31731 10.3246C5.45193 10.0492 5.99037 8.74928 5.38285 7.75221C4.44239 6.20872 6.2087 4.44241 7.75219 5.38287C8.74926 5.9904 10.0492 5.45195 10.3246 4.31733Z" stroke="currentColor" stroke-width="2" stroke-linecap="round" stroke-linejoin="round"/>
<path d="M15 12C15 13.6569 13.6569 15 12 15C10.3431 15 9 13.6569 9 12C9 10.3432 10.3431 9.00002 12 9.00002C13.6569 9.00002 15 10.3432 15 12Z" stroke="currentColor" stroke-width="2" stroke-linecap="round" stroke-linejoin="round"/>
</svg>
