<svg width="24" height="24" viewBox="0 0 24 24" fill="none" xmlns="http://www.w3.org/2000/svg">
<path d="M7.37498 16.7809L8.62498 15.2189L4.60098 11.9999L8.62498 8.78092L7.37498 7.21892L2.37498 11.2189C2.25783 11.3126 2.16325 11.4314 2.09825 11.5666C2.03326 11.7018 1.99951 11.8499 1.99951 11.9999C1.99951 12.1499 2.03326 12.298 2.09825 12.4332C2.16325 12.5684 2.25783 12.6872 2.37498 12.7809L7.37498 16.7809ZM16.625 7.21892L15.375 8.78092L19.399 11.9999L15.375 15.2189L16.625 16.7809L21.625 12.7809C21.7421 12.6872 21.8367 12.5684 21.9017 12.4332C21.9667 12.298 22.0005 12.1499 22.0005 11.9999C22.0005 11.8499 21.9667 11.7018 21.9017 11.5666C21.8367 11.4314 21.7421 11.3126 21.625 11.2189L16.625 7.21892ZM14.976 3.21592L10.976 21.2159L9.02298 20.7819L13.023 2.78192L14.976 3.21592Z" fill="currentColor"/>
</svg>
