<svg width="24" height="24" viewBox="0 0 24 24" fill="none" xmlns="http://www.w3.org/2000/svg">
<path fill-rule="evenodd" clip-rule="evenodd" d="M5.99998 2.39996C4.67449 2.39996 3.59998 3.47448 3.59998 4.79996V21.6L7.79998 19.2L12 21.6L16.2 19.2L20.4 21.6V4.79996C20.4 3.47448 19.3255 2.39996 18 2.39996H5.99998ZM8.99998 5.99996C8.00586 5.99996 7.19998 6.80585 7.19998 7.79996C7.19998 8.79408 8.00586 9.59996 8.99998 9.59996C9.99409 9.59996 10.8 8.79408 10.8 7.79996C10.8 6.80585 9.99409 5.99996 8.99998 5.99996ZM16.4485 6.35143C15.9799 5.88281 15.2201 5.88281 14.7514 6.35143L7.55145 13.5514C7.08282 14.0201 7.08282 14.7799 7.55145 15.2485C8.02008 15.7171 8.77987 15.7171 9.2485 15.2485L16.4485 8.04849C16.9171 7.57986 16.9171 6.82006 16.4485 6.35143ZM15 12C14.0059 12 13.2 12.8059 13.2 13.8C13.2 14.7941 14.0059 15.6 15 15.6C15.9941 15.6 16.8 14.7941 16.8 13.8C16.8 12.8059 15.9941 12 15 12Z" fill="currentColor"/>
</svg>
