<svg width="24" height="24" viewBox="0 0 24 24" fill="none" xmlns="http://www.w3.org/2000/svg">
<path d="M21.6 11.4C21.6 12.3941 20.7942 13.2 19.8 13.2C18.8059 13.2 18 12.3941 18 11.4V4.20003C18 3.20591 18.8059 2.40003 19.8 2.40003C20.7942 2.40003 21.6 3.20591 21.6 4.20003V11.4Z" fill="currentColor"/>
<path d="M16.8 11.6V5.08331C16.8 4.17425 16.2864 3.34322 15.4734 2.93668L15.4135 2.90677C14.747 2.57352 14.0121 2.40003 13.2669 2.40002L6.76757 2.40002C5.62354 2.40002 4.63854 3.20753 4.41418 4.32935L2.97418 11.5293C2.67716 13.0144 3.81306 14.4 5.32757 14.4H9.60004V19.2C9.60004 20.5255 10.6746 21.6 12 21.6C12.6628 21.6 13.2 21.0628 13.2 20.4V19.6C13.2 18.5614 13.5369 17.5509 14.16 16.72L15.84 14.48C16.4632 13.6492 16.8 12.6386 16.8 11.6Z" fill="currentColor"/>
</svg>
