<svg width="24" height="24" viewBox="0 0 24 24" fill="none" xmlns="http://www.w3.org/2000/svg">
<path fill-rule="evenodd" clip-rule="evenodd" d="M5.62502 1.5C4.58902 1.5 3.75002 2.34 3.75002 3.375V20.625C3.75002 21.66 4.59002 22.5 5.62502 22.5H18.375C19.41 22.5 20.25 21.66 20.25 20.625V12.75C20.25 11.7554 19.8549 10.8016 19.1517 10.0983C18.4484 9.39509 17.4946 9 16.5 9H14.625C14.1277 9 13.6508 8.80246 13.2992 8.45083C12.9476 8.0992 12.75 7.62228 12.75 7.125V5.25C12.75 4.25544 12.3549 3.30161 11.6517 2.59835C10.9484 1.89509 9.99458 1.5 9.00002 1.5H5.62502ZM7.50002 15C7.50002 14.8011 7.57904 14.6103 7.71969 14.4697C7.86034 14.329 8.05111 14.25 8.25002 14.25H15.75C15.9489 14.25 16.1397 14.329 16.2803 14.4697C16.421 14.6103 16.5 14.8011 16.5 15C16.5 15.1989 16.421 15.3897 16.2803 15.5303C16.1397 15.671 15.9489 15.75 15.75 15.75H8.25002C8.05111 15.75 7.86034 15.671 7.71969 15.5303C7.57904 15.3897 7.50002 15.1989 7.50002 15ZM8.25002 17.25C8.05111 17.25 7.86034 17.329 7.71969 17.4697C7.57904 17.6103 7.50002 17.8011 7.50002 18C7.50002 18.1989 7.57904 18.3897 7.71969 18.5303C7.86034 18.671 8.05111 18.75 8.25002 18.75H12C12.1989 18.75 12.3897 18.671 12.5303 18.5303C12.671 18.3897 12.75 18.1989 12.75 18C12.75 17.8011 12.671 17.6103 12.5303 17.4697C12.3897 17.329 12.1989 17.25 12 17.25H8.25002Z" fill="currentColor"/>
<path d="M12.971 1.81604C13.7975 2.769 14.2518 3.98859 14.25 5.25004V7.12504C14.25 7.33204 14.418 7.50004 14.625 7.50004H16.5C17.7615 7.49829 18.9811 7.95253 19.934 8.77904C19.4941 7.10575 18.6175 5.57934 17.3941 4.35593C16.1707 3.13252 14.6443 2.256 12.971 1.81604Z" fill="currentColor"/>
</svg>
