<svg width="24" height="24" viewBox="0 0 24 24" fill="none" xmlns="http://www.w3.org/2000/svg">
<path fill-rule="evenodd" clip-rule="evenodd" d="M4.89957 10.8H7.23438C7.34143 8.94432 7.69476 7.23488 8.23975 5.85873C6.50104 6.92561 5.25018 8.71017 4.89957 10.8ZM12 2.39999C6.69809 2.39999 2.40002 6.69806 2.40002 12C2.40002 17.3019 6.69809 21.6 12 21.6C17.302 21.6 21.6 17.3019 21.6 12C21.6 6.69806 17.302 2.39999 12 2.39999ZM12 4.79999C11.9088 4.79999 11.7215 4.83806 11.4417 5.1142C11.1567 5.39544 10.845 5.86188 10.5574 6.533C10.091 7.62132 9.74991 9.1027 9.63887 10.8H14.3612C14.2501 9.1027 13.9091 7.62132 13.4426 6.533C13.155 5.86188 12.8433 5.39544 12.5584 5.1142C12.2786 4.83806 12.0913 4.79999 12 4.79999ZM16.7657 10.8C16.6586 8.94432 16.3053 7.23488 15.7603 5.85873C17.499 6.92561 18.7499 8.71017 19.1005 10.8H16.7657ZM14.3612 13.2H9.63887C9.74991 14.8973 10.091 16.3787 10.5574 17.467C10.845 18.1381 11.1567 18.6046 11.4417 18.8858C11.7215 19.1619 11.9088 19.2 12 19.2C12.0913 19.2 12.2786 19.1619 12.5584 18.8858C12.8433 18.6046 13.155 18.1381 13.4426 17.467C13.9091 16.3787 14.2501 14.8973 14.3612 13.2ZM15.7603 18.1413C16.3053 16.7651 16.6586 15.0557 16.7657 13.2H19.1005C18.7499 15.2898 17.499 17.0744 15.7603 18.1413ZM8.23975 18.1413C7.69476 16.7651 7.34143 15.0557 7.23438 13.2H4.89957C5.25018 15.2898 6.50105 17.0744 8.23975 18.1413Z" fill="currentColor"/>
</svg>
