<svg width="24" height="24" viewBox="0 0 24 24" fill="none" xmlns="http://www.w3.org/2000/svg">
<path d="M15.1029 5.50297C16.0402 4.56571 17.5598 4.56571 18.4971 5.50297C19.4343 6.44023 19.4343 7.95982 18.4971 8.89708L14.8971 12.4971C13.9598 13.4343 12.4402 13.4343 11.5029 12.4971C11.0343 12.0285 10.2745 12.0285 9.80589 12.4971C9.33726 12.9657 9.33726 13.7255 9.80589 14.1941C11.6804 16.0687 14.7196 16.0687 16.5941 14.1941L20.1941 10.5941C22.0686 8.71962 22.0686 5.68043 20.1941 3.80591C18.3196 1.9314 15.2804 1.9314 13.4059 3.80591L11.6059 5.60591C11.1373 6.07454 11.1373 6.83434 11.6059 7.30297C12.0745 7.7716 12.8343 7.7716 13.3029 7.30297L15.1029 5.50297Z" fill="currentColor"/>
<path d="M9.10297 11.503C10.0402 10.5657 11.5598 10.5657 12.4971 11.503C12.9657 11.9716 13.7255 11.9716 14.1941 11.503C14.6628 11.0343 14.6628 10.2745 14.1941 9.80591C12.3196 7.9314 9.28043 7.9314 7.40591 9.80591L3.80591 13.4059C1.9314 15.2804 1.9314 18.3196 3.80591 20.1941C5.68043 22.0687 8.71962 22.0687 10.5941 20.1941L12.3941 18.3941C12.8628 17.9255 12.8628 17.1657 12.3941 16.6971C11.9255 16.2285 11.1657 16.2285 10.6971 16.6971L8.89708 18.4971C7.95982 19.4343 6.44023 19.4343 5.50297 18.4971C4.56571 17.5598 4.56571 16.0402 5.50297 15.103L9.10297 11.503Z" fill="currentColor"/>
</svg>
