<svg width="24" height="24" viewBox="0 0 24 24" fill="none" xmlns="http://www.w3.org/2000/svg">
<path fill-rule="evenodd" clip-rule="evenodd" d="M3.59991 3.59991C4.26266 3.59991 4.79991 4.13717 4.79991 4.79991L4.79991 19.1999C4.79991 19.8627 4.26265 20.3999 3.59991 20.3999C2.93717 20.3999 2.39991 19.8627 2.39991 19.1999L2.39991 4.79991C2.39991 4.13717 2.93717 3.59991 3.59991 3.59991ZM12.8484 7.55139C13.3171 8.02001 13.3171 8.77981 12.8484 9.24844L11.297 10.7999L20.3999 10.7999C21.0627 10.7999 21.5999 11.3372 21.5999 11.9999C21.5999 12.6627 21.0627 13.1999 20.3999 13.1999L11.297 13.1999L12.8484 14.7514C13.3171 15.22 13.3171 15.9798 12.8484 16.4484C12.3798 16.9171 11.62 16.9171 11.1514 16.4484L7.55139 12.8484C7.32634 12.6234 7.19991 12.3182 7.19991 11.9999C7.19991 11.6817 7.32634 11.3764 7.55139 11.1514L11.1514 7.55139C11.62 7.08276 12.3798 7.08276 12.8484 7.55139Z" fill="currentColor"/>
</svg>
