<svg width="28" height="28" viewBox="0 0 28 28" fill="none" xmlns="http://www.w3.org/2000/svg">
<path d="M3.8967 19.8334C4.54103 20.9494 5.96808 21.3317 7.08409 20.6874C8.20011 20.0431 8.58248 18.616 7.93815 17.5C7.29382 16.384 5.86677 16.0016 4.75076 16.646C3.63474 17.2903 3.25237 18.7173 3.8967 19.8334Z" fill="white"/>
<path opacity="0.4" d="M20.0625 10.5C20.7069 11.616 22.1339 11.9984 23.2499 11.3541C24.3659 10.7097 24.7483 9.28268 24.104 8.16667C23.4597 7.05065 22.0326 6.66828 20.9166 7.31261C19.8006 7.95694 19.4182 9.38399 20.0625 10.5Z" fill="white"/>
<path opacity="0.8" d="M2.96408 12.751C3.60842 13.867 5.03546 14.2493 6.15148 13.605C7.26749 12.9607 7.64987 11.5336 7.00553 10.4176C6.3612 9.30161 4.93416 8.91923 3.81814 9.56356C2.70213 10.2079 2.31975 11.6349 2.96408 12.751Z" fill="white"/>
<path opacity="0.3" d="M20.9952 17.5824C21.6395 18.6984 23.0666 19.0808 24.1826 18.4364C25.2986 17.7921 25.681 16.365 25.0366 15.249C24.3923 14.133 22.9653 13.7506 21.8492 14.395C20.7332 15.0393 20.3508 16.4663 20.9952 17.5824Z" fill="white"/>
<path opacity="0.7" d="M7.31195 7.08434C7.9566 8.20091 9.38436 8.58348 10.5009 7.93883C11.6175 7.29417 12.0001 5.86641 11.3554 4.74984C10.7108 3.63327 9.28301 3.2507 8.16643 3.89535C7.04986 4.54001 6.66729 5.96777 7.31195 7.08434Z" fill="white"/>
<path opacity="0.2" d="M16.6463 23.2496C17.2906 24.3656 18.7176 24.748 19.8337 24.1036C20.9497 23.4593 21.3321 22.0323 20.6877 20.9163C20.0434 19.8002 18.6163 19.4179 17.5003 20.0622C16.3843 20.7065 16.0019 22.1336 16.6463 23.2496Z" fill="white"/>
<path opacity="0.6" d="M14.3943 6.15171C15.0387 7.26773 16.4657 7.6501 17.5817 7.00577C18.6977 6.36144 19.0801 4.93439 18.4358 3.81838C17.7914 2.70236 16.3644 2.31999 15.2484 2.96432C14.1324 3.60865 13.75 5.0357 14.3943 6.15171Z" fill="white"/>
<path opacity="0.1" d="M9.5629 24.1828C10.2072 25.2988 11.6343 25.6812 12.7503 25.0369C13.8663 24.3925 14.2487 22.9655 13.6044 21.8495C12.96 20.7334 11.533 20.3511 10.417 20.9954C9.30094 21.6397 8.91857 23.0668 9.5629 24.1828Z" fill="white"/>
</svg>
