<svg width="28" height="28" viewBox="0 0 28 28" fill="none" xmlns="http://www.w3.org/2000/svg">
<path d="M25.6667 14.0002C25.6667 12.7115 24.6221 11.6668 23.3334 11.6668C22.0447 11.6668 21.0001 12.7115 21.0001 14.0002C21.0001 15.2888 22.0447 16.3335 23.3334 16.3335C24.6221 16.3335 25.6667 15.2888 25.6667 14.0002Z" fill="white"/>
<path opacity="0.4" d="M7.00008 14.0002C7.00008 12.7115 5.95541 11.6668 4.66675 11.6668C3.37808 11.6668 2.33341 12.7115 2.33341 14.0002C2.33341 15.2888 3.37808 16.3335 4.66675 16.3335C5.95541 16.3335 7.00008 15.2888 7.00008 14.0002Z" fill="white"/>
<path opacity="0.8" d="M22.9332 20.6C22.9332 19.3113 21.8886 18.2667 20.5999 18.2667C19.3112 18.2667 18.2666 19.3113 18.2666 20.6C18.2666 21.8887 19.3112 22.9333 20.5999 22.9333C21.8886 22.9333 22.9332 21.8887 22.9332 20.6Z" fill="white"/>
<path opacity="0.3" d="M9.73357 7.40034C9.73357 6.11168 8.6889 5.06701 7.40024 5.06701C6.11157 5.06701 5.0669 6.11168 5.0669 7.40034C5.0669 8.689 6.11157 9.73367 7.40024 9.73367C8.6889 9.73367 9.73357 8.689 9.73357 7.40034Z" fill="white"/>
<path opacity="0.7" d="M16.3346 23.3335C16.3346 22.0442 15.2894 20.999 14.0001 20.999C12.7108 20.999 11.6656 22.0442 11.6656 23.3335C11.6656 24.6228 12.7108 25.668 14.0001 25.668C15.2894 25.668 16.3346 24.6228 16.3346 23.3335Z" fill="white"/>
<path opacity="0.2" d="M16.3334 4.66684C16.3334 3.37818 15.2887 2.33351 14.0001 2.33351C12.7114 2.33351 11.6667 3.37818 11.6667 4.66684C11.6667 5.95551 12.7114 7.00018 14.0001 7.00018C15.2887 7.00018 16.3334 5.95551 16.3334 4.66684Z" fill="white"/>
<path opacity="0.6" d="M9.73474 20.6C9.73474 19.3113 8.69007 18.2667 7.4014 18.2667C6.11274 18.2667 5.06807 19.3113 5.06807 20.6C5.06807 21.8887 6.11274 22.9333 7.4014 22.9333C8.69007 22.9333 9.73474 21.8887 9.73474 20.6Z" fill="white"/>
<path opacity="0.1" d="M22.9344 7.40034C22.9344 6.11168 21.8897 5.06701 20.6011 5.06701C19.3124 5.06701 18.2677 6.11168 18.2677 7.40034C18.2677 8.689 19.3124 9.73367 20.6011 9.73367C21.8897 9.73367 22.9344 8.689 22.9344 7.40034Z" fill="white"/>
</svg>
