<svg width="24" height="24" viewBox="0 0 24 24" fill="none" xmlns="http://www.w3.org/2000/svg">
<path d="M8.68393 13.3419C8.88622 12.9381 9.00006 12.4824 9.00006 12C9.00006 11.5176 8.88622 11.0619 8.68393 10.6581M8.68393 13.3419C8.1914 14.3251 7.17455 15 6.00006 15C4.34321 15 3.00006 13.6569 3.00006 12C3.00006 10.3431 4.34321 9 6.00006 9C7.17455 9 8.1914 9.67492 8.68393 10.6581M8.68393 13.3419L15.3162 16.6581M8.68393 10.6581L15.3162 7.34193M15.3162 7.34193C15.8087 8.32508 16.8256 9 18.0001 9C19.6569 9 21.0001 7.65685 21.0001 6C21.0001 4.34315 19.6569 3 18.0001 3C16.3432 3 15.0001 4.34315 15.0001 6C15.0001 6.48237 15.1139 6.93815 15.3162 7.34193ZM15.3162 16.6581C15.1139 17.0619 15.0001 17.5176 15.0001 18C15.0001 19.6569 16.3432 21 18.0001 21C19.6569 21 21.0001 19.6569 21.0001 18C21.0001 16.3431 19.6569 15 18.0001 15C16.8256 15 15.8087 15.6749 15.3162 16.6581Z" stroke="currentColor" stroke-width="2" stroke-linecap="round" stroke-linejoin="round"/>
</svg>
