<svg width="24" height="24" viewBox="0 0 24 24" fill="none" xmlns="http://www.w3.org/2000/svg">
<path d="M10.8 7.20001C10.8 9.18824 9.18824 10.8 7.20001 10.8C5.21179 10.8 3.60001 9.18824 3.60001 7.20001C3.60001 5.21179 5.21179 3.60001 7.20001 3.60001C9.18824 3.60001 10.8 5.21179 10.8 7.20001Z" fill="currentColor"/>
<path d="M20.4 7.20001C20.4 9.18824 18.7882 10.8 16.8 10.8C14.8118 10.8 13.2 9.18824 13.2 7.20001C13.2 5.21179 14.8118 3.60001 16.8 3.60001C18.7882 3.60001 20.4 5.21179 20.4 7.20001Z" fill="currentColor"/>
<path d="M15.515 20.4C15.571 20.0081 15.6 19.6074 15.6 19.2C15.6 17.2378 14.9272 15.4327 13.7997 14.0029C14.6823 13.4923 15.707 13.2 16.8 13.2C20.1137 13.2 22.8 15.8863 22.8 19.2V20.4H15.515Z" fill="currentColor"/>
<path d="M7.20001 13.2C10.5137 13.2 13.2 15.8863 13.2 19.2V20.4H1.20001V19.2C1.20001 15.8863 3.8863 13.2 7.20001 13.2Z" fill="currentColor"/>
</svg>
